<?xml version="1.0" encoding="UTF-8"?>
<svg id="Layer_1" data-name="Layer 1" xmlns="http://www.w3.org/2000/svg" viewBox="0 0 348.94 327.57">
  <defs>
    <style>
      .cls-1 {
        fill: #6c54f6;
      }

      .cls-2 {
        fill: #e45a7d;
      }

      .cls-3 {
        fill: #4e3bc1;
      }
    </style>
  </defs>
  <path class="cls-3" d="M206.02,241.32c-.31-.95-1.13-2.06-2.44-3.33-6.28-6.13-21.64-21.52-46.07-46.18-36.06-36.42-42.28-88.73-18.83-134.08,.09-.02,.23-.2,.43-.55C172.85-.64,246.09-17.74,301.21,20.36c52.83,36.53,62.95,110,24.61,160.47-2.88,3.79-7.34,8.73-13.37,14.82-14.99,15.13-30.02,30.18-45.11,45.15-.22,.22-.59,.07-.59-.24V104.04c0-.27-.21-.48-.47-.48l-58.54,.02c-.49,0-.74,.25-.74,.75V240.82c0,.2-.17,.39-.41,.47-.14,.05-.33,.06-.57,.03Z"/>
  <path class="cls-1" d="M138.68,57.73c-23.45,45.35-17.23,97.66,18.83,134.08,24.43,24.66,39.79,40.05,46.07,46.18,1.31,1.27,2.13,2.38,2.44,3.33-51.83,.01-103.64,.01-155.44,0-6.67-.01-11.85-.46-15.54-1.35-29.4-7.14-44.31-40.51-28.83-67.39,8.66-15.04,22.57-22.76,41.72-23.15,.31,0,.44-.16,.37-.47-12.27-55,36.79-101.4,90.38-91.23Z"/>
  <rect class="cls-2" x="206.75" y="267.57" width="60.24" height="60" rx=".26" ry=".26"/>
</svg>