<?xml version="1.0" encoding="UTF-8" standalone="no"?>
<!DOCTYPE svg PUBLIC "-//W3C//DTD SVG 1.1//EN" "http://www.w3.org/Graphics/SVG/1.1/DTD/svg11.dtd">
<svg xmlns="http://www.w3.org/2000/svg" version="1.1" viewBox="0.00 0.00 1932.00 400.00">
<path fill="#fefefe" d="
  M 140.39 13.02
  C 192.14 23.77 234.79 56.67 253.64 106.70
  C 254.63 109.34 256.09 111.33 256.01 114.79
  C 256.00 115.12 256.16 115.43 256.42 115.62
  C 259.82 118.15 257.00 122.29 260.07 125.73
  C 260.30 125.99 260.44 126.32 260.45 126.66
  C 260.53 128.82 260.77 130.94 261.17 133.01
  C 261.49 134.66 262.91 135.90 262.94 137.81
  C 263.26 153.53 264.26 165.33 262.94 182.79
  C 262.63 186.98 261.14 191.37 260.06 196.06
  C 248.49 245.88 212.58 285.40 164.77 303.27
  C 158.17 305.73 150.83 307.36 143.75 309.30
  C 139.76 310.40 135.75 310.06 131.87 310.99
  C 127.78 311.98 123.88 312.47 120.19 312.47
  C 85.61 312.48 50.75 312.54 15.61 312.66
  C 14.00 312.67 12.66 311.41 12.58 309.81
  C 12.40 306.57 12.31 303.11 12.30 299.44
  C 12.25 204.87 12.24 110.31 12.26 15.75
  C 12.26 13.40 13.19 11.49 15.05 10.03
  C 15.31 9.83 15.63 9.72 15.96 9.72
  C 50.66 9.75 85.43 9.27 120.10 10.13
  C 126.54 10.29 133.95 11.68 140.39 13.02
  Z
  M 198.93 131.22
  C 198.33 131.19 197.93 130.59 198.13 130.03
  C 199.06 127.47 196.92 125.87 196.11 123.98
  C 185.28 98.63 163.04 80.87 136.88 73.23
  C 133.95 72.37 130.29 72.25 126.98 71.22
  C 125.01 70.61 123.26 70.30 121.73 70.29
  C 107.24 70.13 92.74 70.02 78.23 69.97
  C 70.72 69.95 72.71 73.66 72.60 79.00
  C 72.32 92.23 72.26 110.65 72.43 134.25
  C 72.55 151.14 72.57 187.47 72.48 243.25
  C 72.48 246.02 71.52 248.99 73.52 251.78
  C 73.73 252.07 74.06 252.24 74.42 252.24
  C 90.87 252.26 107.31 252.27 123.75 252.26
  C 126.76 252.26 130.04 250.59 132.76 250.04
  C 164.07 243.70 188.26 221.00 199.32 191.45
  C 199.79 190.18 200.29 188.36 200.80 185.99
  C 201.58 182.40 203.07 179.73 203.03 175.91
  C 202.98 171.87 203.55 167.92 204.72 164.06
  C 206.07 159.61 203.59 155.33 203.27 151.19
  C 202.98 147.31 203.94 142.38 201.17 139.36
  C 200.95 139.13 200.82 138.82 200.81 138.50
  C 200.74 136.49 200.54 134.53 200.21 132.61
  C 200.06 131.72 199.63 131.25 198.93 131.22
  Z"
/>
<path fill="#fefefe" d="
  M 959.58 142.37
  L 956.94 143.31
  C 956.66 143.41 956.49 143.68 956.52 143.97
  C 956.61 144.89 956.25 145.60 956.25 146.35
  C 956.26 200.38 956.26 254.29 956.25 308.10
  C 956.25 310.33 954.45 312.14 952.21 312.16
  C 936.22 312.26 920.05 312.29 903.70 312.25
  C 899.77 312.24 896.54 310.69 896.55 306.50
  C 896.72 212.47 896.67 118.45 896.42 24.42
  C 896.40 19.93 896.79 15.79 897.82 11.80
  C 898.13 10.59 899.21 9.75 900.45 9.75
  C 915.91 9.73 931.18 9.76 946.25 9.85
  C 947.74 9.86 949.06 10.05 950.23 10.43
  C 950.55 10.54 950.83 10.76 951.01 11.04
  C 954.30 16.14 957.44 21.32 960.43 26.57
  C 984.78 69.25 1009.10 111.95 1033.39 154.67
  C 1036.57 160.26 1039.89 165.76 1043.35 171.17
  C 1044.06 172.29 1044.72 172.99 1045.31 173.27
  C 1046.42 173.80 1047.30 173.55 1047.97 172.52
  C 1049.14 170.69 1050.18 168.97 1051.08 167.38
  C 1093.89 91.36 1122.94 39.99 1138.21 13.26
  C 1138.67 12.46 1139.59 11.44 1140.97 10.21
  C 1141.24 9.97 1141.55 9.85 1141.92 9.84
  L 1191.26 9.74
  C 1192.59 9.73 1193.30 10.39 1193.41 11.72
  C 1193.90 17.72 1194.17 24.06 1194.23 30.75
  C 1194.56 67.34 1194.73 103.92 1194.76 140.50
  C 1194.78 172.09 1193.58 203.66 1194.21 235.25
  C 1194.78 263.92 1194.85 287.98 1194.42 307.43
  C 1194.39 309.00 1193.68 310.50 1192.31 311.91
  C 1192.10 312.13 1191.80 312.25 1191.49 312.25
  C 1173.88 312.25 1156.30 312.25 1138.74 312.24
  C 1136.05 312.24 1134.72 310.64 1134.74 307.44
  C 1135.00 255.71 1135.18 203.98 1135.27 152.25
  C 1135.27 149.01 1135.58 144.68 1133.83 141.89
  C 1133.15 140.81 1132.47 140.81 1131.78 141.88
  C 1108.79 177.81 1087.91 215.33 1066.51 252.23
  C 1064.89 255.03 1062.23 256.44 1058.52 256.47
  C 1050.98 256.53 1043.50 256.35 1035.98 256.80
  C 1032.17 257.03 1028.57 256.17 1025.18 254.24
  C 1024.89 254.07 1024.66 253.82 1024.52 253.51
  C 1023.89 252.06 1023.43 251.08 1023.14 250.59
  C 1007.50 223.75 992.00 196.83 976.65 169.82
  C 975.70 168.15 973.94 165.95 973.17 163.50
  C 973.06 163.15 972.86 162.86 972.55 162.65
  C 971.40 161.84 970.83 160.71 970.84 159.27
  C 970.85 158.94 970.70 158.62 970.45 158.40
  C 969.59 157.65 968.85 156.53 968.23 155.02
  C 967.38 152.94 964.80 148.82 960.49 142.66
  C 960.26 142.33 959.96 142.24 959.58 142.37
  Z"
/>
<path fill="#fefefe" d="
  M 1509.29 151.68
  C 1509.21 152.42 1509.15 153.47 1509.12 154.82
  C 1508.61 175.61 1508.51 191.49 1508.82 202.44
  C 1509.51 226.33 1527.55 247.27 1549.32 255.47
  C 1554.93 257.58 1561.43 258.26 1567.55 259.18
  C 1568.82 259.38 1569.76 260.47 1569.76 261.75
  L 1569.72 313.39
  C 1569.72 315.10 1568.87 315.90 1567.17 315.81
  C 1560.47 315.44 1552.66 315.42 1545.91 313.49
  C 1543.18 312.71 1540.42 312.62 1537.88 311.72
  C 1532.34 309.75 1526.39 307.78 1521.40 305.53
  C 1503.67 297.53 1488.83 285.74 1476.87 270.17
  C 1470.87 262.36 1467.37 257.28 1466.36 254.94
  C 1465.48 252.89 1464.74 251.43 1464.15 250.54
  C 1463.95 250.24 1463.83 249.91 1463.78 249.55
  C 1463.58 248.04 1462.90 246.80 1461.74 245.83
  C 1461.45 245.59 1461.31 245.23 1461.35 244.86
  C 1461.60 242.52 1460.87 240.65 1459.15 239.26
  C 1458.95 239.11 1458.83 238.88 1458.82 238.63
  L 1458.65 235.71
  C 1458.62 235.31 1458.46 234.98 1458.15 234.72
  C 1457.10 233.82 1456.36 232.59 1456.54 231.11
  C 1456.87 228.37 1456.19 225.94 1454.48 223.82
  C 1454.27 223.55 1454.16 223.24 1454.17 222.89
  C 1454.24 218.88 1453.71 214.98 1452.56 211.18
  C 1451.95 209.17 1451.65 207.33 1451.64 205.68
  C 1451.47 154.81 1451.43 103.94 1451.53 53.08
  C 1451.55 42.64 1457.94 45.01 1464.88 42.02
  C 1467.05 41.09 1469.66 41.30 1471.75 39.37
  C 1472.03 39.11 1472.40 38.97 1472.78 38.99
  C 1475.06 39.12 1477.02 38.42 1478.67 36.90
  C 1478.89 36.70 1479.19 36.60 1479.49 36.63
  C 1482.12 36.93 1484.42 36.29 1486.41 34.71
  C 1486.68 34.50 1486.98 34.38 1487.31 34.35
  C 1489.64 34.12 1491.81 33.45 1493.83 32.36
  C 1495.25 31.59 1496.45 31.72 1497.93 31.38
  C 1498.24 31.31 1498.52 31.17 1498.75 30.96
  C 1500.90 29.07 1508.22 27.14 1508.39 32.09
  C 1508.95 48.40 1508.74 64.68 1508.83 81.00
  C 1508.85 85.09 1508.65 89.22 1508.24 93.41
  C 1508.04 95.47 1509.66 97.26 1511.73 97.26
  L 1568.72 97.23
  C 1569.20 97.23 1569.59 97.62 1569.60 98.10
  C 1569.79 110.38 1569.75 122.72 1569.48 135.11
  C 1569.40 138.61 1570.23 143.27 1568.97 147.89
  C 1568.76 148.66 1568.12 149.25 1567.33 149.38
  C 1565.94 149.61 1564.39 149.76 1562.69 149.81
  C 1545.66 150.34 1528.50 150.40 1511.21 149.99
  C 1510.04 149.96 1509.40 150.52 1509.29 151.68
  Z"
/>
<path fill="#fefefe" d="
  M 293.24 193.13
  C 302.78 145.75 337.95 108.44 384.53 95.67
  C 384.58 95.66 386.25 95.35 389.56 94.74
  C 392.55 94.19 394.39 92.55 397.34 92.43
  C 402.55 92.21 408.05 92.16 413.84 92.29
  C 414.63 92.31 415.25 92.95 415.25 93.74
  L 415.25 145.96
  C 415.25 147.27 414.23 148.36 412.92 148.44
  C 380.99 150.50 354.08 173.95 348.67 205.74
  C 347.99 209.73 347.62 216.38 347.57 225.69
  C 347.42 253.06 347.44 280.57 347.61 308.23
  C 347.62 310.54 345.75 312.43 343.44 312.44
  C 328.25 312.51 312.72 312.53 296.85 312.48
  C 292.82 312.47 290.31 311.09 290.30 306.86
  C 290.19 277.19 290.21 247.51 290.36 217.84
  C 290.37 215.56 290.68 212.87 291.27 209.76
  C 292.33 204.22 292.25 198.07 293.24 193.13
  Z"
/>
<path fill="#fefefe" d="
  M 1794.96 195.94
  C 1804.61 147.54 1837.49 110.32 1884.46 96.22
  C 1887.02 95.45 1892.05 94.82 1895.60 93.57
  C 1901.64 91.44 1910.57 92.06 1916.89 92.34
  C 1917.56 92.37 1918.09 92.92 1918.08 93.59
  L 1917.80 146.18
  C 1917.79 146.85 1917.29 147.41 1916.63 147.50
  C 1912.02 148.11 1907.24 149.03 1902.27 150.26
  C 1875.25 156.93 1855.82 179.72 1851.02 206.52
  C 1850.25 210.82 1849.85 217.46 1849.82 226.44
  C 1849.71 254.07 1849.70 282.02 1849.77 310.29
  C 1849.78 311.44 1848.84 312.38 1847.69 312.39
  L 1795.36 312.55
  C 1795.05 312.55 1794.78 312.35 1794.68 312.06
  L 1792.94 306.79
  C 1792.83 306.46 1792.82 306.14 1792.91 305.81
  C 1793.76 302.58 1794.16 299.64 1794.11 297.00
  C 1793.54 268.33 1793.70 236.42 1794.59 201.25
  C 1794.66 198.63 1794.78 196.86 1794.96 195.94
  Z"
/>
<path fill="#fefefe" d="
  M 473.94 304.08
  C 451.97 293.42 433.71 276.66 423.01 255.25
  C 420.46 250.16 418.81 246.85 418.06 245.33
  C 418.01 245.24 418.00 245.13 418.01 245.03
  C 418.26 242.70 417.53 240.77 415.80 239.26
  C 415.51 239.00 415.37 238.62 415.43 238.23
  C 415.90 235.36 415.24 232.80 413.45 230.56
  C 413.18 230.22 413.06 229.79 413.12 229.36
  C 413.51 226.50 413.28 223.78 412.43 221.21
  C 409.98 213.81 409.84 200.48 411.57 192.08
  C 412.29 188.57 412.72 186.31 412.85 185.30
  C 418.44 142.69 457.50 103.30 499.88 97.00
  C 503.90 96.40 507.50 95.02 511.43 94.89
  C 519.72 94.62 528.51 94.17 536.64 96.04
  C 541.15 97.09 545.72 97.00 549.90 98.31
  C 590.41 111.07 618.45 139.93 628.12 180.76
  C 632.02 197.22 631.11 218.00 626.77 233.59
  C 614.84 276.44 580.34 307.68 535.90 313.25
  C 527.28 314.33 518.59 315.34 509.95 313.70
  C 506.34 313.01 502.69 312.57 499.02 312.40
  C 495.83 312.24 493.52 310.41 490.17 310.08
  C 487.18 309.79 485.93 308.04 483.12 307.72
  C 481.08 307.49 479.63 306.20 477.82 305.64
  C 476.62 305.27 475.33 304.75 473.94 304.08
  Z
  M 505.46 256.00
  C 511.98 258.22 523.65 257.82 528.69 257.44
  C 550.41 255.80 569.78 235.28 573.17 214.42
  C 574.09 208.72 575.43 203.40 573.64 197.43
  C 572.76 194.51 572.56 192.28 572.36 189.45
  C 572.34 189.11 572.21 188.81 571.98 188.56
  C 569.92 186.33 570.07 183.62 568.88 181.41
  C 563.61 171.63 556.22 163.82 546.71 157.97
  C 545.69 157.35 544.62 157.44 543.54 156.70
  C 540.47 154.62 535.21 152.61 531.44 152.50
  C 527.73 152.38 523.95 151.41 520.50 151.49
  C 498.22 152.00 480.74 164.11 471.63 184.08
  C 466.96 194.33 467.33 203.89 468.48 215.38
  C 468.81 218.67 470.87 220.32 470.91 224.03
  C 470.92 224.36 471.05 224.63 471.30 224.84
  C 473.04 226.22 473.00 228.22 473.69 229.47
  C 480.79 242.38 491.38 251.23 505.46 256.00
  Z"
/>
<path fill="#fefefe" d="
  M 653.25 370.02
  C 652.96 369.89 652.75 369.62 652.69 369.30
  C 651.63 363.64 652.23 357.44 652.24 352.77
  C 652.26 302.68 652.26 252.59 652.24 202.50
  C 652.24 197.21 652.95 191.06 654.38 184.04
  C 662.57 143.82 689.27 112.47 729.20 100.20
  C 733.95 98.74 738.37 97.76 742.44 97.26
  C 753.33 95.92 762.87 94.24 773.92 96.23
  C 778.11 96.98 782.15 96.85 786.16 97.72
  C 823.70 105.87 851.70 131.80 865.45 167.25
  C 866.28 169.40 867.04 173.54 868.87 176.47
  C 869.04 176.75 869.13 177.06 869.13 177.39
  C 869.11 181.95 871.06 185.72 871.32 189.79
  C 872.10 202.10 872.43 215.30 869.94 226.94
  C 858.78 279.13 812.85 315.51 759.34 314.84
  C 753.28 314.76 746.73 313.33 740.31 312.55
  C 736.45 312.08 733.40 310.07 729.16 309.86
  C 728.82 309.84 728.49 309.71 728.23 309.48
  C 726.55 308.01 724.56 307.39 722.25 307.63
  C 721.89 307.67 721.52 307.53 721.27 307.25
  C 719.94 305.77 718.26 305.06 716.23 305.12
  C 715.94 305.13 715.65 305.02 715.45 304.81
  C 714.24 303.54 712.77 303.04 711.04 303.31
  C 710.67 303.37 710.33 303.56 710.10 303.86
  C 707.80 306.77 709.03 309.14 708.98 311.94
  C 708.57 333.89 708.88 356.30 708.02 377.67
  C 707.93 379.94 709.06 383.06 708.42 384.95
  C 707.59 387.44 705.77 388.13 702.98 387.02
  C 699.77 385.75 695.58 384.36 690.42 382.87
  C 688.11 382.21 685.35 380.26 682.14 380.25
  C 681.83 380.25 681.52 380.15 681.27 379.96
  C 679.57 378.65 677.64 377.92 675.48 377.77
  C 675.13 377.74 674.81 377.62 674.52 377.41
  C 672.69 376.06 670.61 375.39 668.29 375.40
  C 667.95 375.40 667.64 375.30 667.36 375.10
  C 664.17 372.78 661.19 373.65 657.94 371.35
  C 657.67 371.16 657.36 371.05 657.03 371.02
  C 655.71 370.90 654.45 370.57 653.25 370.02
  Z
  M 710.20 218.51
  C 713.09 231.48 723.50 245.46 735.72 251.99
  C 737.39 252.89 739.71 254.00 742.66 255.31
  C 749.68 258.43 758.33 258.80 765.89 258.41
  C 789.21 257.21 810.23 239.23 814.31 215.91
  C 815.33 210.08 816.49 206.11 814.75 199.46
  C 814.04 196.73 814.28 193.87 813.67 191.01
  C 813.59 190.63 813.42 190.31 813.15 190.04
  C 811.90 188.79 811.36 187.26 811.53 185.45
  C 811.56 185.08 811.46 184.72 811.25 184.42
  C 809.47 181.91 808.72 179.08 807.18 176.79
  C 798.75 164.29 784.29 153.42 768.87 152.27
  C 760.82 151.67 753.34 151.79 745.76 154.40
  C 718.45 163.81 703.85 190.02 710.20 218.51
  Z"
/>
<path fill="#fefefe" d="
  M 1630.98 306.44
  C 1604.92 296.34 1581.08 274.48 1570.21 248.52
  C 1569.18 246.07 1568.34 244.36 1567.67 243.41
  C 1567.48 243.14 1567.42 242.83 1567.47 242.50
  C 1567.85 240.38 1567.27 238.57 1565.73 237.08
  C 1565.50 236.85 1565.37 236.58 1565.34 236.26
  L 1564.85 230.93
  C 1564.82 230.64 1564.71 230.36 1564.53 230.14
  C 1561.45 226.33 1563.09 219.59 1562.34 216.44
  C 1560.26 207.69 1561.10 200.95 1562.16 191.28
  C 1566.93 147.71 1598.56 112.67 1639.96 100.17
  C 1642.12 99.52 1644.96 99.36 1647.47 97.71
  C 1647.75 97.53 1648.06 97.43 1648.39 97.42
  C 1654.76 97.21 1661.10 96.75 1667.41 96.02
  C 1673.88 95.27 1681.05 96.95 1687.60 97.31
  C 1692.83 97.60 1696.87 99.22 1701.70 100.72
  C 1732.10 110.16 1758.36 132.48 1770.03 162.59
  C 1770.93 164.90 1772.94 166.79 1772.43 170.28
  C 1772.38 170.65 1772.50 171.02 1772.75 171.29
  C 1774.39 173.07 1775.09 175.21 1774.85 177.70
  C 1774.82 178.05 1774.91 178.36 1775.13 178.64
  C 1778.10 182.40 1777.01 185.86 1777.39 189.56
  C 1777.80 193.43 1778.17 197.31 1778.52 201.18
  C 1779.24 209.25 1778.86 218.05 1779.32 226.53
  C 1779.51 230.08 1777.77 232.49 1774.19 232.49
  C 1731.80 232.50 1689.40 232.50 1647.00 232.50
  C 1641.41 232.50 1633.70 231.89 1627.00 232.15
  C 1625.76 232.20 1624.97 233.49 1625.48 234.62
  C 1628.44 241.18 1637.05 247.01 1642.72 251.32
  C 1643.98 252.28 1644.63 252.25 1646.14 252.53
  C 1646.46 252.59 1646.75 252.77 1646.94 253.03
  C 1647.81 254.21 1649.02 254.77 1650.56 254.71
  C 1650.94 254.70 1651.29 254.79 1651.60 255.00
  C 1653.27 256.10 1654.55 257.07 1656.68 257.12
  C 1662.25 257.27 1667.76 258.48 1673.31 257.86
  C 1677.56 257.38 1682.26 257.74 1686.13 256.39
  C 1694.38 253.50 1701.61 249.05 1707.81 243.03
  C 1708.50 242.35 1709.62 242.38 1710.28 243.09
  C 1721.85 255.35 1734.43 266.30 1746.41 278.10
  C 1748.35 280.00 1747.17 281.64 1745.49 283.22
  C 1733.37 294.58 1719.35 302.77 1703.42 307.78
  C 1696.85 309.85 1690.52 312.12 1683.54 312.43
  C 1673.14 312.89 1662.73 312.90 1652.30 312.47
  C 1648.30 312.31 1645.67 309.99 1641.26 309.86
  C 1640.85 309.85 1640.47 309.73 1640.14 309.48
  C 1638.32 308.17 1636.28 307.59 1634.03 307.72
  C 1633.81 307.73 1633.59 307.68 1633.39 307.57
  C 1632.58 307.13 1631.78 306.75 1630.98 306.44
  Z
  M 1678.55 151.60
  C 1660.21 146.51 1632.51 158.79 1625.20 175.64
  C 1624.87 176.39 1625.43 177.24 1626.26 177.24
  L 1713.24 177.25
  C 1714.17 177.25 1714.79 176.29 1714.40 175.44
  C 1709.65 165.08 1698.25 158.08 1687.50 153.24
  C 1685.17 152.19 1681.40 152.39 1678.55 151.60
  Z"
/>
<path fill="#fefefe" d="
  M 1366.13 245.30
  C 1376.96 256.88 1389.29 266.75 1400.31 278.20
  C 1402.84 280.83 1398.82 284.24 1396.59 286.12
  C 1381.49 298.85 1364.75 306.42 1345.86 310.96
  C 1334.52 313.69 1321.18 312.89 1309.58 312.45
  C 1305.11 312.28 1301.08 310.56 1296.58 309.68
  C 1294.40 309.26 1292.29 308.02 1289.86 307.51
  C 1288.61 307.26 1287.70 307.02 1287.12 306.81
  C 1261.25 297.29 1241.64 280.52 1228.29 256.50
  C 1227.50 255.08 1226.68 252.55 1225.29 250.83
  C 1225.06 250.55 1224.91 250.23 1224.84 249.87
  L 1224.23 246.75
  C 1224.15 246.38 1223.96 246.05 1223.67 245.80
  C 1222.30 244.61 1221.76 243.07 1222.05 241.17
  C 1222.11 240.82 1222.01 240.46 1221.78 240.18
  C 1218.77 236.55 1220.76 232.93 1217.75 229.37
  C 1217.54 229.12 1217.43 228.80 1217.44 228.48
  C 1217.53 225.05 1217.17 221.68 1216.37 218.38
  C 1215.70 215.60 1215.35 213.31 1215.31 211.52
  C 1215.06 200.33 1215.88 190.41 1217.76 181.74
  C 1226.67 140.70 1258.89 109.31 1299.09 98.69
  C 1305.68 96.95 1312.74 96.98 1319.80 96.52
  C 1326.87 96.05 1333.99 97.01 1341.11 97.22
  C 1343.56 97.29 1345.89 97.67 1348.10 98.36
  C 1354.37 100.30 1361.03 102.10 1366.75 104.69
  C 1397.24 118.51 1417.59 141.43 1427.78 173.44
  C 1432.95 189.67 1432.39 208.91 1431.92 225.68
  C 1431.89 226.83 1432.62 228.72 1431.68 229.96
  C 1430.26 231.81 1428.18 232.73 1425.44 232.72
  C 1377.40 232.59 1329.41 232.50 1281.48 232.46
  C 1280.04 232.46 1279.18 234.06 1279.98 235.26
  C 1283.12 239.94 1294.23 252.18 1300.13 252.55
  C 1300.46 252.57 1300.77 252.74 1300.96 253.02
  C 1301.76 254.21 1302.88 254.79 1304.31 254.77
  C 1304.69 254.76 1305.03 254.88 1305.32 255.12
  C 1306.91 256.41 1308.57 257.09 1310.31 257.18
  C 1314.85 257.39 1318.66 257.91 1321.74 258.73
  C 1324.68 259.51 1330.42 257.76 1333.42 257.50
  C 1336.36 257.24 1338.93 257.32 1341.69 256.17
  C 1348.84 253.19 1355.29 249.31 1361.03 244.53
  C 1363.08 242.82 1364.45 243.50 1366.13 245.30
  Z
  M 1307.45 152.93
  C 1298.06 156.22 1283.64 165.34 1279.79 174.99
  C 1279.18 176.53 1279.70 177.30 1281.35 177.29
  L 1368.31 177.15
  C 1368.91 177.15 1369.31 176.54 1369.08 175.99
  C 1361.88 158.77 1331.65 145.75 1314.35 151.61
  C 1312.03 152.40 1309.59 152.18 1307.45 152.93
  Z"
/>
</svg>
