<?xml version="1.0" encoding="UTF-8"?>
<svg id="Layer_1" data-name="Layer 1" xmlns="http://www.w3.org/2000/svg" viewBox="0 0 200 200">
  <defs>
    <style>
      .cls-1 {
        fill: #fff;
      }

      .cls-2 {
        fill: #6e59a6;
      }
    </style>
  </defs>
  <circle class="cls-2" cx="100" cy="100" r="100"/>
  <path class="cls-1" d="M48.5,98.26c4.72,3.17,9.55,6.19,14.48,9.05,6.44,3.74,9.65,.92,16.26-2.94,15.37-8.97,30.79-17.88,46.24-26.73,4.34-2.48,7.09-2.74,11.71-.17,9.43,5.24,18.83,10.54,28.2,15.9,2.64,1.52,3.64,4.95,3.74,8.15,.45,15.57,.42,27.3-.08,35.2-.17,2.61-2.68,5.1-5.13,6.55-8.86,5.27-17.75,10.49-26.68,15.64-6.67,3.85-9.41,1.56-16.01-2.29-7.97-4.64-15.92-9.29-23.87-13.95-5.66-3.32-4.1-13.29-4.05-18.99,0-.34,.16-.6,.45-.77l12.85-7.4c.26-.15,.58,.04,.56,.34-.28,5.47-1.68,14.74,3.74,18.19,8.7,5.53,17.67,12.98,24.75,9.23,5.06-2.69,10.03-5.52,14.92-8.49,3.45-2.1,4.43-4.77,4.45-8.95,.03-5.87,.04-11.74,.01-17.6-.04-6.79-13.19-12.33-18.65-15.37-4.57-2.55-7.39-2-12.01,.66-17.06,9.86-34.11,19.73-51.15,29.61-2.98,1.72-6.14,1.77-9.33,0-13.27-7.33-23.32-13.2-30.14-17.59-2.48-1.6-3.18-4.68-3.19-7.78-.03-11.1-.03-22.2,0-33.3,.01-3.72,1.77-5.42,5.01-7.36,9.12-5.45,18.29-10.82,27.51-16.09,3.06-1.75,7.05-2.71,9.91-1.02,9.91,5.85,19.81,11.71,29.71,17.56,5.29,3.13,3.88,13.62,3.85,18.83,0,.58-.32,1.12-.82,1.4l-12.22,6.94c-.32,.18-.72-.04-.72-.41-.01-6.02,1.75-14.93-4.34-18.75-3.09-1.94-6.19-3.84-9.32-5.69-9.35-5.53-10.65-6.05-19.65-.96-7.36,4.16-14.84,6.66-14.92,14.72-.09,9.23-1.98,20.67,3.92,24.63Z"/>
</svg>