<?xml version="1.0" encoding="UTF-8"?>
<svg id="Layer_1" data-name="Layer 1" xmlns="http://www.w3.org/2000/svg" viewBox="0 0 200 200">
  <defs>
    <style>
      .cls-1 {
        fill: #ebc28e;
      }

      .cls-2 {
        fill: #fcefdd;
      }

      .cls-3 {
        fill: #1d0f0d;
      }
    </style>
  </defs>
  <circle class="cls-2" cx="100" cy="100" r="100"/>
  <g>
    <path class="cls-3" d="M154.8,116.22c-2.11-1.08-4.14-1.89-6.47-2.2-.4-.05-.6-.28-.6-.69V48.02c0-1.93-1.57-3.5-3.5-3.5-25.36-.01-51.03,.01-77,.04-21.42,.02-31.45,25.12-15.58,40.56,4.69,4.57-.06,9.69-3.95,6.44-19.35-16.2-13.37-46.62,10.99-53.45,3.29-.93,8.2-1.38,14.73-1.37,23.27,.04,46.54,.05,69.81,.02,10.61-.01,12.58,8.69,12.22,17.37-.86,20.48-.21,41.3-.21,61.82,0,.33-.15,.42-.44,.27Z"/>
    <path class="cls-3" d="M66.73,139.69c-.03,12.06,12.71,19.78,22.71,13.55,9.43-5.89,10.52-18.02,1.48-25.19-2.31-1.83-5.28-2.55-8.89-2.15-.37,.04-.56,.25-.56,.62v7.41c.02,.44,.24,.65,.67,.63l3.05-.14c.31-.02,.57,.23,.57,.54l.02,6.58c0,.23-.2,.41-.43,.39-2.23-.25-4.82,.14-6.74-.68-5.76-2.46-4.91-8.05-4.89-13.16,.04-6.31,1.83-9.82,8.46-9.82,19.01,0,38.01,0,57.02-.01,4.47,0,7.92,.44,10.36,1.33,16.07,5.81,19.92,26.27,7.47,37.74-5.14,4.73-10.94,5.68-18.44,5.69-17.85,.03-35.69-.04-53.54-.2-18.24-.16-25.99-6.88-26.15-25.5-.19-22.98-.14-45.96,.17-68.94,0-.41-.2-.61-.61-.61h-3.5c-.38,0-.57-.19-.56-.57l.12-6.42c0-.33,.17-.49,.5-.5,6.1-.1,11.42-.66,11.49,7.43,.19,23.99,.27,47.98,.22,71.98Zm75.21,15.56c19.43-.07,19.97-29.36-.48-29.43-18.5-.06-32.18-.07-41.03-.04-.5,0-.61,.21-.33,.63,6.31,9.51,6.27,18.95-.12,28.32-.23,.34-.14,.51,.27,.51,13.9,.06,27.8,.06,41.69,0Z"/>
    <path class="cls-3" d="M80.23,61.79l45.94-.08c.31,0,.59,.08,.86,.24,3.72,2.21,2.81,7.05-1.61,7.06-15.06,.02-30.12,.02-45.18,0-.34,0-.51-.17-.51-.51v-6.22c0-.33,.17-.49,.5-.49Z"/>
    <path class="cls-3" d="M79.72,80.03c0-.29,.23-.52,.52-.52h53.26c2.19,0,3.96,1.68,3.96,3.75v.02c0,2.07-1.77,3.75-3.96,3.75h-53.26c-.29,0-.52-.23-.52-.52v-6.48Z"/>
    <path class="cls-3" d="M79.73,97.74c0-.13,.1-.23,.23-.23h45.86c1.98,0,3.59,1.63,3.59,3.63h0c0,2-1.61,3.63-3.59,3.63h-45.86c-.13,0-.23-.1-.23-.23v-6.8Z"/>
    <path class="cls-1" d="M141.46,125.82c20.45,.07,19.91,29.36,.48,29.43-13.89,.05-27.79,.05-41.69,0-.41,0-.5-.17-.27-.51,6.39-9.37,6.43-18.81,.12-28.32-.28-.42-.17-.63,.33-.63,8.85-.03,22.53-.02,41.03,.04Z"/>
  </g>
</svg>