<?xml version="1.0" encoding="UTF-8"?>
<svg id="Layer_1" data-name="Layer 1" xmlns="http://www.w3.org/2000/svg" viewBox="0 0 200 200">
  <defs>
    <style>
      .cls-1 {
        fill: #010101;
      }

      .cls-2 {
        fill: #fff;
      }
    </style>
  </defs>
  <circle class="cls-2" cx="100" cy="100" r="100"/>
  <g>
    <path class="cls-1" d="M69,110.43l.03,30.4c0,.13-.16,.2-.26,.1L27.95,100.13c-.06-.06-.06-.15,0-.21l40.81-40.81c.09-.09,.26-.03,.26,.1l-.02,20c0,.08,.07,.15,.15,.15h40.73c.14,0,.2,.18,.09,.27l-40.91,30.69s-.06,.07-.06,.12Z"/>
    <path class="cls-1" d="M131.16,59.04l40.88,40.88c.06,.06,.06,.15,0,.21l-40.86,40.82c-.09,.09-.26,.03-.26-.11l.07-20.02c0-.08-.06-.15-.15-.15h-40.75c-.14,0-.2-.18-.09-.27l40.87-30.67s.06-.07,.06-.12l-.04-30.48c0-.13,.16-.2,.26-.1Z"/>
  </g>
</svg>