<?xml version="1.0" encoding="UTF-8"?>
<svg id="Layer_1" data-name="Layer 1" xmlns="http://www.w3.org/2000/svg" viewBox="0 0 1583.56 306.84">
  <defs>
    <style>
      .cls-1 {
        fill: #8b8cfb;
      }

      .cls-2 {
        fill: #4e5299;
      }

      .cls-3 {
        fill: rgba(255, 255, 255, .89);
      }
    </style>
  </defs>
  <path class="cls-2" d="M518.47,153.63l-153.11,153.11c-.21,.21-.58,.06-.58-.24v-81.48c0-.19-.15-.34-.34-.34H213.95c-.33,0-.47-.42-.21-.61l150.9-111.05c.09-.06,.14-.16,.14-.27V.34c0-.3,.37-.45,.58-.24l153.11,153.05c.13,.13,.13,.35,0,.48Zm-12.07-.61L373.98,21.23c-.31-.3-.46-.24-.46,.19V116.99c.01,.31-.11,.55-.36,.73l-132.56,97.54c-.61,.45-.54,.68,.22,.68h132.21c.28-.01,.5,.21,.5,.49v68.28c0,.93,.33,1.07,.99,.41l131.88-131.36c.2-.21,.2-.53,0-.74Z"/>
  <path class="cls-1" d="M154.87,82.18h150.14c.47,0,.51,.14,.14,.42-47.91,35.73-95.81,71.39-143.71,106.96-.91,.68-1.66,1.16-2.23,1.45-.32,.15-.57,.38-.76,.69-.61,.95-1.48,1.59-2.63,1.92-.91,.25-1.54,1.08-1.54,2.03v110.73c0,.35-.43,.53-.68,.28L.26,154c-.35-.35-.35-.93,0-1.28L153.67,.14c.22-.23,.61-.07,.61,.25V81.58c0,.4,.2,.6,.59,.6Zm123.57,9.31c.24-.18,.11-.56-.19-.56H145.84c-.17,0-.31-.14-.31-.31V21.57c0-.28-.33-.42-.53-.22L12.57,153.19c-.12,.12-.12,.32,0,.44l132.43,131.79c.2,.2,.53,.06,.53-.22v-94.66c0-.1,.05-.19,.12-.25l132.79-98.8Z"/>
  <rect class="cls-1" x="1460.27" y="11.67" width="12.52" height="63.76" rx=".27" ry=".27"/>
  <rect class="cls-1" x="1486.66" y="11.05" width="12" height="13.26" rx=".53" ry=".53" transform="translate(1472.38 1510.31) rotate(-89.9)"/>
  <path class="cls-1" d="M1526,30.18h8.81c.26,0,.47,.21,.47,.47v8.81c0,.26-.21,.47-.47,.47h-8.81c-.26,0-.47,.21-.47,.47v34.56c0,.26-.21,.47-.47,.47h-11.81c-.26,0-.47-.21-.47-.47V40.41c0-.26-.21-.47-.47-.47l-6.81-.02c-.26,0-.47-.21-.47-.47v-8.8c0-.26,.21-.47,.47-.47h6.81c.26,0,.47-.21,.47-.47v-11.56c0-.26,.21-.47,.47-.47h11.81c.26,0,.47,.21,.47,.47v11.56c0,.26,.21,.47,.47,.47Z"/>
  <path class="cls-3" d="M877.8,225.18h-43.28c-.11,0-.21-.05-.27-.14l-34.98-50.68c-.12-.18-.37-.19-.51-.04l-14.39,15.49c-.06,.06-.09,.14-.09,.22v34.82c0,.18-.15,.33-.33,.33h-35.34c-.18,0-.33-.15-.33-.33V29.76c0-.18,.15-.33,.33-.33h35.34c.18,0,.33,.15,.33,.33v110.71c0,.3,.37,.45,.57,.23l45.26-48.42c.06-.06,.15-.1,.24-.1h45.92c.29,0,.44,.35,.24,.56l-52.43,55.16c-.11,.12-.12,.29-.03,.42l54.02,76.34c.16,.22,0,.52-.27,.52Z"/>
  <path class="cls-1" d="M1555.57,57.43c-2.63,0-3.15,1.05-1.58,3.15,5.94,7.94,14.9,5.55,22.46,1.08,.19-.11,.43-.06,.55,.12l5.15,7.76c.21,.31,.16,.57-.13,.8-7.45,5.56-15.77,7.32-24.97,5.27-22.48-5.01-21.96-41.72,.74-45.56,18.25-3.09,26.61,10.02,25.7,26.23-.04,.65-.57,1.15-1.21,1.15h-26.71Zm-1.98-9.18l17.92-.16c.07,0,.12-.06,.12-.13v-.06c-.03-4.41-4.05-7.95-8.97-7.91h-.38c-4.91,.04-8.86,3.66-8.83,8.07v.06c.01,.07,.06,.13,.14,.13Z"/>
  <path class="cls-3" d="M935.26,85.62c-1.36,15.69,10.84,20.81,23.61,23.26,23.83,4.59,49.66,6.84,65.59,29.06,1.48,2.08,3.22,4.02,4.38,6.19,13.83,25.77,6.19,54.3-16.71,71.6-17.29,13.06-40.24,15.39-61.07,12.56-22.63-3.07-39.8-13.78-51.53-32.13-5.05-7.9-7.66-16.87-9.1-26.08-.07-.47,.12-.76,.57-.88l32.83-8.67c.69-.18,1.37,.29,1.45,.99,3.02,27.65,28.94,39.09,53.72,33.13,11-2.65,20.53-12.22,19.02-23.89-1.52-11.69-11.99-18.57-23.06-20.75-15.28-3.01-25.42-5.12-30.42-6.34-27.38-6.66-47.13-26.31-46.53-55.46,.35-17.15,7.43-31.43,21.23-42.84,20.22-16.73,47.62-19.15,72.28-11.91,20.74,6.1,36.63,23.67,41.39,44.58,.15,.67-.24,1.34-.89,1.54l-31.29,9.74c-.44,.14-.92-.12-1.03-.57-5.68-22.14-26.26-30.57-47.15-24.15-1.09,.33-2.07,1.45-3.55,1.49-.33,0-.62,.12-.88,.32-7.2,5.59-12.01,9.41-12.86,19.21Z"/>
  <rect class="cls-1" x="1486.29" y="30.43" width="12.74" height="45" rx=".43" ry=".43"/>
  <path class="cls-3" d="M1387.79,227.42c-21.53-4.63-41.13-20.18-48.94-41.31-20.11-54.47,22.04-108.5,80.44-96.13,21.9,4.63,39.82,21.07,45.55,42.81,.05,.2-.06,.4-.25,.47l-31.16,10.53c-.35,.12-.74-.07-.86-.42-.73-2.13-1.38-4.47-2.31-6.24-5.73-10.82-14.96-16-27.69-15.55-8.43,.29-15.5,3.02-21.19,8.18-16.44,14.89-15.69,48.64,3.67,61.02,12.14,7.76,29.65,7.43,40.39-2.75,3.87-3.66,6.71-8.05,8.53-13.17,.23-.64,.93-.98,1.58-.76l29.25,9.86c.85,.28,1.11,.84,.8,1.68-1.18,3.1-2.09,6.5-3.6,9.37-14.82,28.12-43.92,38.91-74.21,32.41Z"/>
  <path class="cls-3" d="M1228.78,107.83c0,.17,.21,.23,.31,.1,3.25-4.4,6.76-8.01,10.55-10.84,16.26-12.15,45.14-11.38,60.11,3.13,13.13,12.72,15.74,27.44,15.76,44.96,.03,26.39,.04,52.73,.01,79.04,0,.53-.43,.96-.96,.96h-34.02c-.41,0-.75-.34-.75-.75-.01-24.84-.03-49.76-.07-74.75-.02-9.31-1.92-18.35-9.66-24.2-7.69-5.83-21.16-5.9-29.04-.43-6.99,4.87-11.19,14.17-11.2,22.45-.05,25.72-.06,51.36-.03,76.92,0,.42-.34,.76-.76,.76h-34.5c-.41,0-.75-.34-.75-.75V92.93c0-.41,.34-.75,.75-.75h33.62c.35,0,.63,.28,.63,.62v15.03Z"/>
  <path class="cls-3" d="M1109.55,169.27l32.3-76.9c.05-.12,.16-.19,.29-.19h37.8c.23,0,.38,.23,.28,.44l-83.17,184.5c-.05,.11-.16,.18-.28,.18l-37.64,.19c-.22,0-.37-.23-.28-.44l31.15-68.52c.04-.08,.04-.18,0-.26l-56.19-115.64c-.1-.21,.05-.45,.28-.45h39.56c.12,0,.23,.07,.28,.18l35.06,76.92c.11,.24,.46,.24,.56-.01Z"/>
  <path class="cls-3" d="M727.03,194.02v30.81c0,.19-.16,.35-.35,.35h-109.3c-.19,0-.35-.16-.35-.35v-31.29c0-.08,.03-.17,.09-.23l62.48-69.55c.2-.22,.04-.58-.26-.58h-60.46c-.19,0-.35-.16-.35-.35v-30.3c0-.19,.16-.35,.35-.35h106.8c.19,0,.35,.16,.35,.35v29.27c0,.08-.03,.17-.09,.23l-64.35,71.07c-.2,.23-.04,.59,.26,.59l64.83-.02c.19,0,.35,.16,.35,.35Z"/>
</svg>